# xmcd CD database file
# Generated: Tue Sep 3 12:43:23 2002 by KSCD
# 
# Track frame offsets:
#       183
#       21500
#       40018
#       64303
#       93425
#       109428
#       127175
#       153050
#       167110
#       181988
#       200065
#       211213
#       235423
#
# Disc length: 3312 seconds
#
# Revision: 1
# Processed by: cddbd v1.4PL0 Copyright (c) Steve Scherf et al.
# Submitted via: Kscd 1.3.3
#
DISCID=bc0cee0d
DTITLE=The Producers - For This Night Only
DYEAR=1900
DGENRE=
TTITLE0=New money
TTITLE1=Why are you crying
TTITLE2=Back to the city
TTITLE3=Life could be better
TTITLE4=Work
TTITLE5=Steady rolling man
TTITLE6=Spoonful
TTITLE7=It's all over now
TTITLE8=Bluesman
TTITLE9=Telephone shuffle
TTITLE10=All the way home
TTITLE11=For this night only
TTITLE12=The glory of love
EXTD=
EXTT0=
EXTT1=
EXTT2=
EXTT3=
EXTT4=
EXTT5=
EXTT6=
EXTT7=
EXTT8=
EXTT9=
EXTT10=
EXTT11=
EXTT12=
PLAYORDER=
